<svg
className=""
width={32}
height={32}
viewBox="0 0 32 32"
fill="none"
aria-label="Swiggy Logo"
role="img"
{...props}

> 
> 

```
  <path
  d="M0 16C0 9.0848 5.49316e-06 5.6288 1.86561 3.2704C2.27841 2.7488 2.74881 2.2784 3.27041 1.8656C5.62561 0 9.0848 0 16 0C22.9152 0 26.3712 0 28.7296 1.8656C29.2512 2.2784 29.7216 2.7488 30.1344 3.2704C32 5.6256 32 9.0848 32 16C32 22.9152 32 26.3712 30.1344 28.7296C29.7216 29.2512 29.2512 29.7216 28.7296 30.1344C26.3744 32 22.9152 32 16 32C9.0848 32 5.62881 32 3.27041 30.1344C2.74881 29.7216 2.27841 29.2512 1.86561 28.7296C5.49316e-06 26.3744 0 22.9152 0 16Z"
  fill="#FF5200"
/>
  <path
  fillRule="evenodd"
  clipRule="evenodd"
  d="M17.0646 12.5679V9.25273C17.0646 9.03833 16.8886 8.86233 16.6742 8.86233C16.4598 8.86233 16.2838 9.03833 16.2838 9.25273V13.1471C16.2838 13.3679 16.463 13.5439 16.6806 13.5439H17.0614C22.5942 13.5439 23.1702 13.8319 22.8246 14.9999C22.8086 15.0575 22.7894 15.1119 22.7702 15.1727C22.767 15.1855 22.7638 15.1983 22.7606 15.2079C21.3078 19.5887 17.3782 25.0703 16.2166 26.6383C16.0534 26.8591 15.7238 26.8591 15.5606 26.6383C14.8598 25.6911 13.1446 23.3103 11.5798 20.6095C11.4742 20.3631 11.423 19.7871 13.1606 19.7871H15.2854C15.4038 19.7871 15.4998 19.8831 15.4998 20.0015V21.7167C15.4998 21.9215 15.6502 22.1103 15.855 22.1263C15.9766 22.1359 16.0854 22.0911 16.1654 22.0111C16.239 21.9407 16.2806 21.8447 16.2806 21.7359V19.4095C16.2806 19.1887 16.0982 19.0063 15.8774 19.0063H11.583C10.8342 19.0063 10.3798 18.3663 10.0822 17.7839C9.14781 15.8255 8.479 13.8927 8.479 12.3695C8.479 8.46873 11.5894 4.95833 15.8838 4.95833C19.7078 4.95833 22.6038 7.73913 23.1926 11.1023C23.1958 11.1311 23.2182 11.2591 23.2214 11.2847C23.375 12.9359 19.0678 12.7471 17.2566 12.7567C17.1478 12.7567 17.0646 12.6703 17.0646 12.5647V12.5679Z"
  fill="white"
/>

```
</svg>